<?xml version="1.0" ?><!DOCTYPE svg  PUBLIC '-//W3C//DTD SVG 1.1//EN'  'http://www.w3.org/Graphics/SVG/1.1/DTD/svg11.dtd'><svg height="256px" style="shape-rendering:geometricPrecision; text-rendering:geometricPrecision; image-rendering:optimizeQuality; fill-rule:evenodd; clip-rule:evenodd" version="1.1" viewBox="0 0 256000 256002" width="256px" xml:space="preserve" xmlns="http://www.w3.org/2000/svg" xmlns:xlink="http://www.w3.org/1999/xlink"><defs><style type="text/css">
   <![CDATA[
    .fil4 {fill:none}
    .fil0 {fill:#1572B6}
    .fil1 {fill:#35A8DB}
    .fil2 {fill:#E9E9E8}
    .fil3 {fill:#FFFFFE}
   ]]>
  </style></defs><g id="Layer_x0020_1"><g id="_400352496"><polygon class="fil0" points="221081,228523 241216,2960 241481,0 238514,0 17486,0 14519,0 14783,2960 34898,228561 35066,230441 36878,230944 127143,256002 128589,256002 219101,230907 220912,230404 "/><polygon class="fil1" points="223988,16000 128000,16000 128000,239561 205961,217946 "/><g><polygon class="fil2" points="127893,76061 60190,104257 62437,132173 127893,104185 197521,74417 200409,45860 "/><polygon class="fil2" points="127893,45861 128394,45861 128966,45861 129538,45861 130109,45861 130681,45861 131252,45861 131823,45861 132395,45861 132967,45861 133538,45861 134110,45861 134682,45861 135253,45861 135825,45861 136396,45861 136968,45861 137539,45861 138110,45861 138682,45861 139254,45861 139825,45861 140397,45861 140969,45861 141540,45861 142112,45861 142684,45861 143254,45861 143826,45861 144397,45861 144969,45861 145541,45861 146112,45861 146684,45861 147256,45861 147827,45861 148399,45861 148969,45861 149541,45861 150113,45861 150684,45861 151256,45861 151828,45861 152399,45861 152971,45861 153543,45861 154114,45861 154685,45861 155256,45861 155828,45861 156400,45861 156971,45861 157543,45861 158115,45861 158686,45861 159258,45861 159830,45861 160401,45861 160972,45861 161543,45861 162115,45861 162687,45861 163258,45861 163830,45861 164402,45861 164973,45861 165545,45861 166117,45861 166687,45861 167259,45861 167830,45861 168402,45861 168974,45861 169545,45861 170117,45861 170689,45861 171260,45861 171832,45861 172404,45861 172974,45861 173546,45861 174117,45861 174689,45861 175261,45861 175832,45861 176404,45861 176976,45861 177547,45861 178119,45861 178690,45861 179261,45861 179833,45861 180404,45861 180976,45861 181548,45861 182119,45861 182691,45861 183263,45861 183833,45861 184406,45861 184977,45861 185548,45861 186120,45861 186692,45861 187263,45861 187835,45861 188406,45861 188978,45861 189550,45861 190120,45861 190692,45861 191264,45861 191835,45861 192407,45861 192979,45861 193550,45861 194122,45861 194694,45861 195265,45861 195836,45861 196407,45861 196979,45861 197551,45861 198122,45861 198694,45861 199266,45861 199837,45861 200409,45861 199837,51514 199266,57166 198694,62817 198122,68471 197551,74123 197521,74417 197521,74417 196979,74417 196407,74417 195836,74417 195265,74417 194694,74417 194122,74417 193550,74417 192979,74417 192407,74417 191835,74417 191264,74417 190692,74417 190120,74417 189550,74417 188978,74417 188406,74417 187835,74417 187263,74417 186692,74417 186120,74417 185548,74417 184977,74417 184406,74417 183833,74417 183263,74417 182691,74417 182119,74417 181548,74417 180976,74417 180404,74417 179833,74417 179261,74417 178690,74417 178119,74417 177547,74417 176976,74417 176404,74417 175832,74417 175261,74417 174689,74417 174117,74417 173546,74417 172974,74417 172404,74417 171832,74417 171260,74417 170689,74417 170117,74417 169545,74417 168974,74417 168402,74417 167830,74417 167259,74417 166687,74417 166117,74417 165545,74417 164973,74417 164402,74417 163830,74417 163258,74417 162687,74417 162115,74417 161543,74417 160972,74417 160401,74417 159830,74417 159258,74417 158686,74417 158115,74417 157543,74417 156971,74417 156400,74417 155828,74417 155256,74417 154685,74417 154114,74417 153543,74417 152971,74417 152399,74417 151828,74417 151256,74417 150684,74417 150113,74417 149541,74417 148969,74417 148399,74417 147827,74417 147256,74417 146684,74417 146112,74417 145541,74417 144969,74417 144397,74417 143826,74417 143254,74417 142684,74417 142112,74417 141540,74417 140969,74417 140397,74417 139825,74417 139254,74417 138682,74417 138110,74417 137539,74417 136968,74417 136396,74417 135825,74417 135253,74417 134682,74417 134110,74417 133538,74417 132967,74417 132395,74417 131840,74417 131823,74417 131252,74417 130681,74417 130109,74417 129538,74417 128966,74417 128394,74417 127976,74417 127893,74417 127823,74417 127251,74417 126680,74417 126108,74417 125536,74417 124965,74417 124394,74417 123822,74417 123251,74417 122679,74417 122107,74417 121536,74417 120964,74417 120392,74417 119821,74417 119250,74417 118679,74417 118107,74417 117535,74417 116964,74417 116392,74417 115820,74417 115249,74417 114677,74417 114105,74417 113534,74417 112963,74417 112392,74417 111820,74417 111248,74417 110677,74417 110105,74417 109533,74417 108962,74417 108390,74417 107818,74417 107248,74417 106676,74417 106105,74417 105533,74417 104961,74417 104390,74417 103818,74417 103246,74417 102675,74417 102103,74417 101533,74417 100961,74417 100389,74417 99818,74417 99246,74417 98674,74417 98103,74417 97531,74417 96959,74417 96388,74417 95817,74417 95246,74417 94674,74417 94102,74417 93531,74417 92959,74417 92387,74417 91816,74417 91244,74417 90672,74417 90101,74417 89530,74417 88959,74417 88387,74417 87815,74417 87244,74417 86672,74417 86100,74417 85529,74417 84957,74417 84385,74417 83815,74417 83243,74417 82672,74417 82100,74417 81528,74417 80957,74417 80385,74417 79813,74417 79242,74417 78670,74417 78099,74417 77528,74417 76956,74417 76384,74417 75813,74417 75241,74417 74670,74417 74098,74417 73526,74417 72955,74417 72383,74417 71812,74417 71241,74417 70669,74417 70097,74417 69526,74417 68954,74417 68382,74417 67811,74417 67239,74417 66668,74417 66097,74417 65525,74417 64954,74417 64382,74417 63810,74417 63239,74417 62667,74417 62095,74417 61524,74417 60952,74417 60382,74417 59810,74417 59238,74417 58667,74417 58095,74417 57624,74417 57523,73609 56952,68984 56380,64360 55808,59733 55237,55109 54666,50485 54095,45861 54666,45861 55237,45861 55808,45861 56380,45861 56952,45861 57523,45861 58095,45861 58667,45861 59238,45861 59810,45861 60382,45861 60952,45861 61524,45861 62095,45861 62667,45861 63239,45861 63810,45861 64382,45861 64954,45861 65525,45861 66097,45861 66668,45861 67239,45861 67811,45861 68382,45861 68954,45861 69526,45861 70097,45861 70669,45861 71241,45861 71812,45861 72383,45861 72955,45861 73526,45861 74098,45861 74670,45861 75241,45861 75813,45861 76384,45861 76956,45861 77528,45861 78099,45861 78670,45861 79242,45861 79813,45861 80385,45861 80957,45861 81528,45861 82100,45861 82672,45861 83243,45861 83815,45861 84385,45861 84957,45861 85529,45861 86100,45861 86672,45861 87244,45861 87815,45861 88387,45861 88959,45861 89530,45861 90101,45861 90672,45861 91244,45861 91816,45861 92387,45861 92959,45861 93531,45861 94102,45861 94674,45861 95246,45861 95817,45861 96388,45861 96959,45861 97531,45861 98103,45861 98674,45861 99246,45861 99818,45861 100389,45861 100961,45861 101533,45861 102103,45861 102675,45861 103246,45861 103818,45861 104390,45861 104961,45861 105533,45861 106105,45861 106676,45861 107248,45861 107818,45861 108390,45861 108962,45861 109533,45861 110105,45861 110677,45861 111248,45861 111820,45861 112392,45861 112963,45861 113534,45861 114105,45861 114677,45861 115249,45861 115820,45861 116392,45861 116964,45861 117535,45861 118107,45861 118679,45861 119250,45861 119821,45861 120392,45861 120964,45861 121536,45861 122107,45861 122679,45861 123251,45861 123822,45861 124394,45861 124965,45861 125536,45861 126108,45861 126680,45861 127251,45861 127823,45861 "/><polygon class="fil2" points="60295,104261 195062,104261 192606,132495 62541,132173 "/><polygon class="fil2" points="64506,147899 93987,147911 95911,170997 127893,178928 160728,169714 162950,131963 192693,131495 187360,192816 128001,210142 68212,192495 "/></g><g><polygon class="fil3" points="128000,104139 197521,74417 200409,45860 128000,76016 "/><polygon class="fil3" points="128000,45861 128394,45861 128966,45861 129538,45861 130109,45861 130681,45861 131252,45861 131823,45861 132395,45861 132967,45861 133538,45861 134110,45861 134682,45861 135253,45861 135825,45861 136396,45861 136968,45861 137539,45861 138110,45861 138682,45861 139254,45861 139825,45861 140397,45861 140969,45861 141540,45861 142112,45861 142684,45861 143254,45861 143826,45861 144397,45861 144969,45861 145541,45861 146112,45861 146684,45861 147256,45861 147827,45861 148399,45861 148969,45861 149541,45861 150113,45861 150684,45861 151256,45861 151828,45861 152399,45861 152971,45861 153543,45861 154114,45861 154685,45861 155256,45861 155828,45861 156400,45861 156971,45861 157543,45861 158115,45861 158686,45861 159258,45861 159830,45861 160401,45861 160972,45861 161543,45861 162115,45861 162687,45861 163258,45861 163830,45861 164402,45861 164973,45861 165545,45861 166117,45861 166687,45861 167259,45861 167830,45861 168402,45861 168974,45861 169545,45861 170117,45861 170689,45861 171260,45861 171832,45861 172404,45861 172974,45861 173546,45861 174117,45861 174689,45861 175261,45861 175832,45861 176404,45861 176976,45861 177547,45861 178119,45861 178690,45861 179261,45861 179833,45861 180404,45861 180976,45861 181548,45861 182119,45861 182691,45861 183263,45861 183833,45861 184406,45861 184977,45861 185548,45861 186120,45861 186692,45861 187263,45861 187835,45861 188406,45861 188978,45861 189550,45861 190120,45861 190692,45861 191264,45861 191835,45861 192407,45861 192979,45861 193550,45861 194122,45861 194694,45861 195265,45861 195836,45861 196407,45861 196979,45861 197551,45861 198122,45861 198694,45861 199266,45861 199837,45861 200409,45861 199837,51514 199266,57166 198694,62817 198122,68471 197551,74123 197521,74417 197521,74417 196979,74417 196407,74417 195836,74417 195265,74417 194694,74417 194122,74417 193550,74417 192979,74417 192407,74417 191835,74417 191264,74417 190692,74417 190120,74417 189550,74417 188978,74417 188406,74417 187835,74417 187263,74417 186692,74417 186120,74417 185548,74417 184977,74417 184406,74417 183833,74417 183263,74417 182691,74417 182119,74417 181548,74417 180976,74417 180404,74417 179833,74417 179261,74417 178690,74417 178119,74417 177547,74417 176976,74417 176404,74417 175832,74417 175261,74417 174689,74417 174117,74417 173546,74417 172974,74417 172404,74417 171832,74417 171260,74417 170689,74417 170117,74417 169545,74417 168974,74417 168402,74417 167830,74417 167259,74417 166687,74417 166117,74417 165545,74417 164973,74417 164402,74417 163830,74417 163258,74417 162687,74417 162115,74417 161543,74417 160972,74417 160401,74417 159830,74417 159258,74417 158686,74417 158115,74417 157543,74417 156971,74417 156400,74417 155828,74417 155256,74417 154685,74417 154114,74417 153543,74417 152971,74417 152399,74417 151828,74417 151256,74417 150684,74417 150113,74417 149541,74417 148969,74417 148399,74417 147827,74417 147256,74417 146684,74417 146112,74417 145541,74417 144969,74417 144397,74417 143826,74417 143254,74417 142684,74417 142112,74417 141540,74417 140969,74417 140397,74417 139825,74417 139254,74417 138682,74417 138110,74417 137539,74417 136968,74417 136396,74417 135825,74417 135253,74417 134682,74417 134110,74417 133538,74417 132967,74417 132395,74417 131840,74417 131823,74417 131252,74417 130681,74417 130109,74417 129538,74417 128966,74417 128394,74417 128000,74417 "/><polygon class="fil3" points="128000,104261 195062,104261 192606,132495 128000,132335 "/><polygon class="fil3" points="128000,178899 160728,169714 162950,131963 192693,131495 187360,192816 128001,210142 128000,210142 "/></g></g></g><rect class="fil4" height="256000" width="256000" y="1"/></svg>