<?xml version="1.0" ?><!DOCTYPE svg  PUBLIC '-//W3C//DTD SVG 1.1//EN'  'http://www.w3.org/Graphics/SVG/1.1/DTD/svg11.dtd'><svg height="256px" style="shape-rendering:geometricPrecision; text-rendering:geometricPrecision; image-rendering:optimizeQuality; fill-rule:evenodd; clip-rule:evenodd" version="1.1" viewBox="0 0 256000 256002" width="256px" xml:space="preserve" xmlns="http://www.w3.org/2000/svg" xmlns:xlink="http://www.w3.org/1999/xlink"><defs><style type="text/css">
   <![CDATA[
    .fil4 {fill:none}
    .fil3 {fill:#FEFEFE}
    .fil1 {fill:#F26B3A}
    .fil0 {fill:#E55638}
    .fil2 {fill:#EAEAEA}
   ]]>
  </style></defs><g id="Layer_x0020_1"><g id="_396627504"><polygon class="fil0" points="35175,230411 14519,0 241481,0 220803,230375 127861,256002 "/><polygon class="fil1" points="128000,236414 203102,215707 220772,18840 128000,18840 "/><polygon class="fil2" points="128000,104296 90402,104296 87806,75358 128000,75358 128000,47099 127902,47099 56753,47099 57434,54680 64416,132554 128000,132554 "/><polygon class="fil2" points="128000,177688 127876,177721 96232,169222 94209,146685 78832,146685 65686,146685 69666,191056 127869,207125 128000,207089 "/><polygon class="fil3" points="127902,104296 127902,132554 162889,132554 159591,169204 127902,177712 127902,207112 186151,191056 186577,186282 193255,111885 193947,104296 186291,104296 "/><polygon class="fil3" points="127902,47099 127902,64650 127902,75290 127902,75358 196442,75358 196532,75358 197103,69006 198397,54680 199077,47099 "/></g></g><rect class="fil4" height="256000" width="256000" y="1"/></svg>