<?xml version="1.0" ?><!DOCTYPE svg  PUBLIC '-//W3C//DTD SVG 1.1//EN'  'http://www.w3.org/Graphics/SVG/1.1/DTD/svg11.dtd'><svg enable-background="new 0 0 512 512" height="20px" id="Layer_1" version="1.1" viewBox="0 0 512 512" width="20px" xml:space="preserve" xmlns="http://www.w3.org/2000/svg" xmlns:xlink="http://www.w3.org/1999/xlink"><path d="M256,512c215.85,0,256-40.15,256-256C512,40.549,472.719,0,256,0C40.971,0,0,40.549,0,256  C0,472.508,40.278,512,256,512z" fill="#F68B23"/><path d="M508.712,343H3.275c11.697,126.098,58.575,161.947,200.058,168h105.053  C450.095,504.913,496.995,468.784,508.712,343z" fill="#F68B23"/><path d="M512,256C512,61.785,480.074,9.695,315.037,1.313l43.226,475.386l102.901-8.159  C501.283,432.125,512,367.508,512,256z" fill="#F37C21"/><path d="M0.017,263.247c0.006,1.358,0.013,2.712,0.023,4.056c0.004,0.545,0.008,1.087,0.013,1.629  c0.011,1.402,0.024,2.796,0.04,4.182c0.005,0.428,0.009,0.857,0.014,1.284c0.02,1.706,0.043,3.403,0.07,5.086  c0.001,0.086,0.002,0.172,0.004,0.258c0.091,5.698,0.217,11.261,0.382,16.692c0.001,0.041,0.003,0.082,0.004,0.122  c0.055,1.799,0.114,3.585,0.177,5.356l401.447,196.809c65.111-17.834,93.606-56.915,104.298-136.05L11.155,118.864  c-0.251,1.066-0.497,2.142-0.739,3.226c-0.066,0.298-0.13,0.602-0.196,0.901c-0.173,0.788-0.345,1.577-0.513,2.375  c-0.083,0.393-0.162,0.792-0.244,1.188c-0.147,0.713-0.294,1.427-0.437,2.147c-0.087,0.439-0.171,0.883-0.257,1.324  c-0.133,0.686-0.266,1.372-0.395,2.065c-0.087,0.468-0.172,0.941-0.258,1.413c-0.123,0.676-0.246,1.353-0.366,2.036  c-0.086,0.487-0.169,0.979-0.253,1.469c-0.116,0.678-0.231,1.358-0.344,2.043c-0.082,0.5-0.163,1.003-0.244,1.506  c-0.11,0.683-0.218,1.369-0.325,2.058c-0.08,0.515-0.158,1.032-0.236,1.551c-0.103,0.685-0.205,1.372-0.305,2.063  c-0.077,0.532-0.154,1.066-0.229,1.603c-0.098,0.693-0.194,1.389-0.288,2.089c-0.073,0.535-0.145,1.07-0.216,1.608  c-0.094,0.714-0.186,1.432-0.277,2.152c-0.068,0.537-0.136,1.074-0.203,1.615c-0.089,0.728-0.177,1.462-0.263,2.197  c-0.064,0.54-0.128,1.08-0.19,1.624c-0.086,0.756-0.17,1.519-0.254,2.282c-0.058,0.531-0.117,1.061-0.174,1.596  c-0.084,0.793-0.165,1.593-0.247,2.393c-0.052,0.514-0.106,1.026-0.157,1.543c-0.084,0.852-0.164,1.712-0.245,2.571  c-0.045,0.476-0.091,0.948-0.134,1.427c-0.09,0.99-0.177,1.99-0.263,2.991c-0.031,0.355-0.063,0.706-0.093,1.063  c-0.229,2.73-0.443,5.502-0.642,8.314c-0.033,0.464-0.063,0.934-0.095,1.399c-0.065,0.944-0.13,1.888-0.191,2.842  c-0.035,0.55-0.068,1.107-0.103,1.661c-0.055,0.881-0.11,1.762-0.162,2.651c-0.035,0.594-0.067,1.194-0.101,1.792  c-0.048,0.855-0.096,1.709-0.141,2.571c-0.033,0.627-0.064,1.259-0.096,1.89c-0.043,0.847-0.085,1.695-0.126,2.549  c-0.03,0.645-0.059,1.295-0.089,1.944c-0.038,0.847-0.076,1.694-0.112,2.548c-0.028,0.668-0.055,1.34-0.082,2.013  c-0.034,0.848-0.067,1.697-0.098,2.551c-0.025,0.682-0.05,1.367-0.074,2.053c-0.03,0.849-0.058,1.701-0.086,2.557  c-0.023,0.707-0.045,1.416-0.067,2.128c-0.026,0.851-0.05,1.705-0.074,2.563c-0.02,0.714-0.039,1.429-0.058,2.147  c-0.023,0.878-0.044,1.761-0.065,2.645c-0.017,0.707-0.033,1.414-0.048,2.126c-0.019,0.904-0.037,1.815-0.055,2.726  c-0.014,0.709-0.028,1.417-0.04,2.129c-0.016,0.922-0.03,1.851-0.045,2.779c-0.011,0.711-0.022,1.42-0.032,2.135  c-0.013,0.954-0.024,1.915-0.035,2.877c-0.008,0.701-0.017,1.399-0.024,2.104c-0.01,1.023-0.018,2.055-0.026,3.086  c-0.005,0.649-0.011,1.294-0.015,1.947c-0.007,1.149-0.012,2.309-0.017,3.468c-0.002,0.55-0.006,1.095-0.008,1.648  C0.003,252.538,0,254.263,0,256c0,1.889,0.004,3.76,0.01,5.622C0.012,262.166,0.015,262.705,0.017,263.247z" fill="#F37C21"/><path d="M314.297,1.276L0.784,209.466C0.242,223.99,0,239.479,0,256c0,21.71,0.406,41.635,1.353,59.924  L437.04,26.603C407.935,11.271,368.182,3.963,314.297,1.276z" fill="#F9A14B"/><path d="M219.628,511.557L38.837,56.794C14.48,87.598,4.146,133.953,1.063,202.69l118.715,298.617  C146.861,507.481,179.764,510.509,219.628,511.557z" fill="#F37C21"/><path d="M336.474,2.715C312.831,0.786,286.133,0,256,0c-2.863,0-5.688,0.009-8.49,0.023l-10.198,511.868  C243.392,511.964,249.616,512,256,512c25.912,0,49.284-0.581,70.367-1.973L336.474,2.715z" fill="#F37C21"/><path d="M511.981,263.608L70.311,482.885c32.11,18.651,77.958,26.377,142.773,28.482l292.951-145.443  C510.12,337.431,511.797,303.629,511.981,263.608z" fill="#F9A14B"/><path d="M507.608,157.891L0.053,268.986c0.28,34.543,1.731,64.346,4.96,90.021L511.98,248.042  C511.816,213.568,510.559,183.712,507.608,157.891z" fill="#F68B23"/><path d="M436.918,485.37c27.582-14.557,45.648-36.354,57.128-68.317L65.73,32.429  c-25.031,16.21-41.17,39.827-51.187,73.652L436.918,485.37z" fill="#F37C21"/><path d="M507.652,353.292C510.786,325.688,512,293.498,512,256C512,85.534,487.405,24.561,369.796,6.529  L507.652,353.292z" fill="#F68B23"/><path d="M255.088,511.999c0.305,0,0.606,0.001,0.912,0.001c35.571,0,66.372-1.072,93.013-3.835l130.555-442.44  c-16.799-25.938-41.549-42.329-77.375-52.252L255.088,511.999z" fill="#F68B23"/><path d="M334.534,195.056c1.388,1.512,2.758,3.042,4.114,4.583c0.124,0.141,0.251,0.281,0.375,0.423  c1.278,1.458,2.539,2.932,3.789,4.416c0.193,0.23,0.389,0.457,0.581,0.688c1.196,1.429,2.376,2.872,3.545,4.325  c0.236,0.293,0.473,0.585,0.708,0.878c1.131,1.417,2.248,2.845,3.353,4.283c0.259,0.337,0.518,0.673,0.775,1.011  c1.078,1.415,2.141,2.84,3.193,4.275c0.272,0.371,0.543,0.742,0.813,1.114c1.03,1.419,2.049,2.848,3.054,4.286  c0.276,0.395,0.55,0.792,0.824,1.188c0.991,1.433,1.971,2.873,2.936,4.325c0.27,0.406,0.536,0.814,0.805,1.221  c0.959,1.457,1.908,2.92,2.841,4.396c0.255,0.404,0.506,0.811,0.76,1.216c0.933,1.491,1.858,2.988,2.764,4.497  c0.232,0.385,0.458,0.775,0.687,1.161c0.917,1.543,1.826,3.09,2.715,4.651c0.189,0.331,0.371,0.666,0.559,0.998  c0.918,1.626,1.827,3.257,2.714,4.902c0.117,0.216,0.229,0.436,0.345,0.652c4.976,9.286,9.461,18.871,13.42,28.723  c0.123,0.305,0.252,0.606,0.373,0.912c0.594,1.493,1.164,2.999,1.734,4.504c0.245,0.648,0.499,1.292,0.74,1.943  c0.504,1.36,0.986,2.729,1.469,4.099c0.285,0.808,0.577,1.613,0.856,2.424c0.442,1.287,0.865,2.583,1.289,3.879  c0.296,0.904,0.596,1.806,0.883,2.714c0.394,1.245,0.772,2.497,1.149,3.749c0.293,0.97,0.587,1.94,0.869,2.914  c0.352,1.214,0.691,2.434,1.027,3.654c0.283,1.025,0.564,2.05,0.836,3.08c0.314,1.191,0.618,2.386,0.917,3.583  c0.268,1.071,0.532,2.143,0.788,3.218c0.279,1.173,0.55,2.35,0.815,3.528c0.25,1.111,0.493,2.223,0.729,3.339  c0.246,1.157,0.485,2.317,0.717,3.479c0.229,1.15,0.449,2.303,0.665,3.458c0.213,1.14,0.423,2.282,0.622,3.427  c0.207,1.19,0.403,2.383,0.595,3.577c0.181,1.124,0.362,2.247,0.53,3.375c0.183,1.228,0.352,2.461,0.52,3.694  c0.15,1.106,0.303,2.21,0.441,3.32c0.158,1.271,0.298,2.547,0.44,3.823c0.12,1.082,0.245,2.163,0.353,3.248  c0.132,1.326,0.243,2.658,0.357,3.99c0.089,1.044,0.187,2.086,0.265,3.133c0.105,1.412,0.187,2.831,0.272,4.249  c0.058,0.975,0.128,1.948,0.177,2.926c0.079,1.586,0.13,3.178,0.184,4.77c0.027,0.819,0.069,1.634,0.089,2.455  c0.061,2.416,0.095,4.838,0.096,7.268h-55.507c-0.088-129.347-105.134-234.556-234.358-234.65l0,0.38l49.424,49.424  c6.137,1.65,12.151,3.598,18.029,5.828c0.051,0.019,0.101,0.039,0.152,0.058c5.787,2.202,11.44,4.676,16.945,7.409  c0.163,0.081,0.325,0.162,0.487,0.243c3.63,1.815,7.197,3.737,10.692,5.772c0.077,0.045,0.154,0.092,0.231,0.137  c1.588,0.928,3.16,1.881,4.719,2.852c0.282,0.176,0.563,0.351,0.844,0.528c1.595,1.006,3.178,2.029,4.742,3.081  c0.036,0.024,0.072,0.047,0.108,0.071c1.626,1.095,3.233,2.218,4.824,3.361c0.277,0.199,0.55,0.403,0.826,0.603  c1.272,0.925,2.532,1.865,3.78,2.82c0.369,0.282,0.739,0.564,1.106,0.849c1.409,1.094,2.805,2.203,4.183,3.335  c0.081,0.066,0.163,0.13,0.244,0.197c1.45,1.196,2.878,2.417,4.291,3.654c0.374,0.327,0.743,0.659,1.114,0.989  c1.062,0.944,2.114,1.899,3.155,2.866c0.392,0.364,0.784,0.726,1.173,1.093c1.353,1.277,2.693,2.567,4.008,3.883  c1.135,1.136,2.253,2.287,3.36,3.45c0.344,0.362,0.68,0.732,1.021,1.097c0.759,0.811,1.517,1.623,2.262,2.446  c0.386,0.427,0.763,0.861,1.145,1.291c0.692,0.779,1.382,1.559,2.062,2.349c0.382,0.445,0.758,0.895,1.136,1.343  c0.67,0.793,1.337,1.589,1.994,2.394c0.361,0.443,0.718,0.889,1.075,1.335c0.667,0.832,1.33,1.668,1.983,2.511  c0.328,0.424,0.654,0.85,0.979,1.276c0.677,0.888,1.346,1.782,2.007,2.682c0.287,0.391,0.573,0.782,0.858,1.175  c0.701,0.969,1.392,1.946,2.076,2.929c0.23,0.331,0.461,0.66,0.689,0.992c0.748,1.09,1.482,2.189,2.208,3.294  c0.154,0.234,0.31,0.467,0.463,0.702c0.836,1.285,1.656,2.581,2.461,3.888c0.037,0.06,0.075,0.119,0.112,0.179  c6.132,9.97,11.369,20.54,15.614,31.598l0,0.001l0,0c5.321,13.864,9.083,28.492,11.051,43.68c0,0,0,0,0,0c0,0,0,0.001,0,0.001  c0.248,1.911,0.463,3.832,0.653,5.76c0.039,0.392,0.069,0.786,0.106,1.179c0.137,1.477,0.258,2.957,0.361,4.443  c0.04,0.574,0.076,1.15,0.111,1.726c0.083,1.375,0.15,2.754,0.203,4.136c0.022,0.553,0.048,1.104,0.065,1.659  c0.057,1.894,0.095,3.794,0.097,5.701h-8.27h-47.332v-0.099h-0.021c-0.054-34.297-12.706-66.775-35.707-91.805  c-0.653-0.71-1.312-1.415-1.98-2.114c-0.69-0.72-1.386-1.436-2.094-2.143c-2.399-2.402-4.873-4.704-7.417-6.904  c-0.538-0.465-1.085-0.918-1.63-1.375c-0.312-0.262-0.621-0.53-0.935-0.789c-1.544-1.27-3.115-2.497-4.706-3.692  c-0.189-0.142-0.375-0.289-0.564-0.43c-2.523-1.875-5.105-3.652-7.738-5.34c-0.163-0.104-0.323-0.214-0.487-0.317  c-0.83-0.527-1.666-1.041-2.506-1.548c-0.106-0.064-0.209-0.131-0.315-0.194c-1.755-1.055-3.534-2.064-5.332-3.036  c-0.143-0.077-0.283-0.158-0.426-0.235c-19.435-10.417-41.256-15.971-63.843-15.99l54.221,54.221  c16.944,5.334,29.233,21.167,29.233,39.873c0,23.085-18.714,41.798-41.798,41.798c-12.988,0-24.592-5.924-32.258-15.216  c-0.544-0.356-1.043-0.68-1.477-0.955L266.24,511.968c0.011,0,0.023,0,0.034,0c1.406-0.009,2.804-0.02,4.195-0.033  c0.359-0.003,0.719-0.007,1.078-0.011c40.181-0.397,73.889-2.427,102.107-7.076l-0.007-0.007  c54.046-8.906,87.964-27.421,108.68-62.481c0.006-0.01,0.011-0.019,0.017-0.029c0.502-0.85,0.997-1.71,1.483-2.58c0,0,0,0,0,0  c2.433-4.348,4.673-8.942,6.736-13.793c0.031-0.073,0.062-0.146,0.093-0.219c0.375-0.887,0.745-1.783,1.109-2.687  c0.036-0.089,0.072-0.178,0.107-0.267c0.376-0.939,0.746-1.888,1.109-2.846c0.011-0.03,0.023-0.059,0.034-0.089  c1.152-3.043,2.241-6.181,3.27-9.416c0.009-0.028,0.017-0.056,0.026-0.084c0.32-1.009,0.634-2.028,0.943-3.056  c0.043-0.144,0.086-0.289,0.129-0.433c0.277-0.928,0.548-1.864,0.816-2.807c0.05-0.177,0.101-0.355,0.15-0.533  c0.267-0.951,0.529-1.91,0.786-2.876c0.039-0.145,0.078-0.289,0.116-0.434c0.897-3.394,1.74-6.885,2.528-10.478  c0.013-0.059,0.026-0.119,0.038-0.179c0.241-1.1,0.476-2.211,0.707-3.33c0.044-0.212,0.087-0.426,0.13-0.639  c0.2-0.982,0.397-1.97,0.589-2.966c0.05-0.26,0.1-0.521,0.15-0.782c0.188-0.988,0.373-1.984,0.554-2.986  c0.043-0.237,0.086-0.474,0.129-0.712c0.197-1.105,0.39-2.22,0.579-3.343c0.022-0.129,0.044-0.256,0.066-0.385  c0.434-2.597,0.846-5.24,1.235-7.931L334.534,195.056z" fill="#AA4824" opacity="0.5"/><path d="M204.515,349.082c0,23.085-18.714,41.798-41.798,41.798c-23.085,0-41.798-18.714-41.798-41.798  c0-23.085,18.714-41.798,41.798-41.798C185.801,307.284,204.515,325.998,204.515,349.082z M325.956,186.081  C273.427,133.55,201.047,101.037,121.134,101v55.349C250.358,156.443,355.405,261.653,355.492,391H411  C410.959,311.057,378.468,238.629,325.956,186.081z M121.032,199.612l0.001,55.376c36.151,0.023,70.341,14.224,95.928,39.85  c25.582,25.545,39.723,59.788,39.781,96.063h0.021v0.099h55.602c-0.046-52.748-21.485-100.525-56.152-135.217  C221.541,221.1,173.781,199.644,121.032,199.612z" fill="#FFFFFF"/></svg>