<?xml version="1.0" encoding="utf-8"?>
<!-- Generator: Adobe Illustrator 16.0.0, SVG Export Plug-In . SVG Version: 6.00 Build 0)  -->
<!DOCTYPE svg PUBLIC "-//W3C//DTD SVG 1.1//EN" "http://www.w3.org/Graphics/SVG/1.1/DTD/svg11.dtd">
<svg version="1.1" id="图层_1" xmlns="http://www.w3.org/2000/svg" xmlns:xlink="http://www.w3.org/1999/xlink" x="0px" y="0px"
	 width="100.092px" height="2196.594px" viewBox="0 0 100.092 2196.594" enable-background="new 0 0 100.092 2196.594"
	 xml:space="preserve">
<title>sprite_title20181203的副本</title>
<line fill="none" x1="83.442" y1="0.438" x2="100.092" y2="0.438"/>
<line fill="none" x1="83.442" y1="2196.019" x2="100.092" y2="2196.019"/>
<g>
	<path fill="#666666" d="M12.109,1989.055h-4c-0.221,0-0.399,0.182-0.399,0.4s0.179,0.4,0.399,0.4h4c0.221,0,0.399-0.182,0.399-0.4
		S12.33,1989.055,12.109,1989.055L12.109,1989.055z"/>
	<path fill="#666666" d="M12.109,1991.655h-4c-0.221,0-0.399,0.18-0.399,0.398c0,0.222,0.179,0.4,0.399,0.4h4
		c0.221,0,0.399-0.18,0.399-0.4C12.508,1991.835,12.33,1991.655,12.109,1991.655L12.109,1991.655z"/>
	<path fill="#666666" d="M19.978,1990.655c0-0.221-0.18-0.398-0.4-0.398c-0.22,0-0.399,0.178-0.399,0.398v0.398
		c-0.008,0.742-0.108,1.482-0.3,2.199c-1,4.105-4.675,6.996-8.899,7c-0.743-0.008-1.482-0.107-2.2-0.301
		c-4.104-0.998-6.995-4.674-6.999-8.898c0.008-0.74,0.108-1.48,0.3-2.197c1-4.105,4.675-6.996,8.899-7
		c0.743,0.008,1.481,0.107,2.199,0.301c2.22,0.588,4.165,1.932,5.5,3.799h-12c-0.19-0.029-0.369,0.1-0.399,0.291
		c-0.006,0.035-0.006,0.072,0,0.109v9.6c-0.03,0.189,0.1,0.369,0.289,0.398h8.909c0.191,0.029,0.37-0.102,0.4-0.289
		c0.006-0.037,0.006-0.074,0-0.109v-7.4c0-0.221-0.179-0.398-0.4-0.398s-0.399,0.18-0.399,0.398l0,0v7h-8.02v-8.799h12.199
		c0.2,0,0.3-0.102,0.399-0.301v-0.4l0,0c-1.349-2.379-3.634-4.084-6.299-4.697c-0.752-0.191-1.524-0.291-2.3-0.303
		c-4.625,0.018-8.636,3.199-9.699,7.699c-0.191,0.752-0.292,1.525-0.3,2.301c0.015,4.625,3.198,8.637,7.699,9.699
		c0.752,0.191,1.523,0.293,2.3,0.301c4.624-0.016,8.636-3.197,9.699-7.697c0.19-0.756,0.292-1.525,0.3-2.303
		C20.058,1990.856,20.058,1990.754,19.978,1990.655z"/>
</g>
<line fill="none" x1="1.71" y1="0.098" x2="64.694" y2="0.098"/>
<line fill="none" x1="3.49" y1="2196.499" x2="15.638" y2="2196.499"/>
<path fill="#666666" d="M18.119,1012.08L18.119,1012.08c-3.365-4.379-9.643-5.202-14.021-1.838c-0.689,0.53-1.308,1.146-1.838,1.838
	c-0.032,0.032-0.06,0.069-0.08,0.11c-2.693,3.546-2.693,8.45,0,11.998l0,0c3.347,4.394,9.621,5.24,14.014,1.896
	c0.714-0.544,1.352-1.182,1.896-1.896l0,0c0.006-0.039,0.006-0.08,0-0.119l0,0c0.006-0.04,0.006-0.081,0-0.12l0,0
	c0.003-0.03,0.003-0.063,0-0.09l0,0c-3.351-4.393-9.625-5.233-14.016-1.886c-0.477,0.364-0.919,0.771-1.323,1.214l-0.21,0.262
	c-2.124-3.116-2.124-7.214,0-10.329c3.586,4.199,9.897,4.697,14.097,1.111c0.399-0.343,0.771-0.715,1.112-1.111
	c1.043,1.521,1.601,3.324,1.6,5.169c0,0.221,0.179,0.399,0.399,0.399c0.221,0.002,0.4-0.179,0.4-0.398c0,0,0,0,0-0.001l0,0
	C20.191,1016.05,19.476,1013.861,18.119,1012.08z M3.34,1023.529c3.419-3.751,9.231-4.021,12.981-0.602
	c0.333,0.306,0.643,0.631,0.928,0.979c-3.204,3.929-8.985,4.518-12.915,1.313c-0.481-0.392-0.922-0.832-1.314-1.313
	C3.114,1023.772,3.22,1023.646,3.34,1023.529z M10.139,1015.64c-2.776,0.021-5.411-1.223-7.159-3.38
	c3.212-3.929,9.001-4.51,12.93-1.298c0.476,0.388,0.91,0.823,1.299,1.298C15.48,1014.392,12.884,1015.633,10.139,1015.64z"/>
<path fill="#666666" d="M10.139,1081.124c-5.522,0.001-9.998,4.479-9.997,10.002c0.002,5.521,4.479,9.998,10.002,9.996
	c2.377,0,4.676-0.848,6.484-2.389c0.146-0.125,0.18-0.338,0.08-0.5v-0.062l0,0l-0.07-0.062l-6.229-3.398
	c-0.118-0.064-0.262-0.064-0.38,0l-3.13,1.648l0.601-3.488c0.021-0.128-0.02-0.26-0.11-0.353L4.86,1090l3.5-0.511
	c0.13-0.021,0.242-0.103,0.3-0.221l1.57-3.17l1.569,3.182c0.059,0.116,0.17,0.198,0.301,0.22l3.499,0.511l-2.619,2.409
	c-0.095,0.09-0.14,0.221-0.12,0.351l0.42,2.471c0.038,0.219,0.247,0.362,0.465,0.323c0.218-0.038,0.363-0.245,0.325-0.465
	l-0.391-2.27l3-2.892c0.157-0.154,0.159-0.406,0.004-0.563c-0.061-0.063-0.139-0.104-0.224-0.114l-4.1-0.591l-1.83-3.669
	c-0.119-0.199-0.377-0.264-0.576-0.146c-0.059,0.035-0.108,0.084-0.144,0.146l-1.83,3.72l-4.1,0.59
	c-0.219,0.033-0.368,0.237-0.334,0.456c0.013,0.085,0.053,0.163,0.114,0.226l3,2.89l-0.7,4.12c-0.036,0.218,0.11,0.424,0.329,0.46
	c0.085,0.015,0.174,0,0.251-0.04l3.659-1.92l5.51,3c-4.058,3.011-9.788,2.164-12.8-1.894c-3.012-4.059-2.165-9.787,1.892-12.801
	c4.058-3.012,9.788-2.165,12.8,1.895c1.744,2.348,2.26,5.388,1.388,8.18c-0.048,0.216,0.088,0.43,0.304,0.479
	c0.189,0.043,0.382-0.059,0.457-0.236c1.656-5.271-1.271-10.882-6.539-12.538c-0.975-0.308-1.989-0.462-3.011-0.461L10.139,1081.124
	L10.139,1081.124z"/>
<g>
	<path fill="#666666" d="M14.638,1159.647c-0.204,0.088-0.298,0.324-0.21,0.527c0.089,0.205,0.326,0.299,0.53,0.211l2.439-1.061
		l-4.069,5.551l-4.56-3.6c-0.085-0.068-0.193-0.098-0.3-0.08c-0.108,0.014-0.206,0.072-0.271,0.16l-3.999,5.379
		c-0.132,0.178-0.095,0.428,0.083,0.559c0.176,0.131,0.424,0.098,0.557-0.078l0,0l3.77-5l4.56,3.602
		c0.086,0.063,0.193,0.094,0.3,0.08c0.108-0.016,0.206-0.072,0.271-0.16l4.34-6l-0.24,2.711c-0.023,0.219,0.136,0.416,0.355,0.438
		c0.002,0,0.003,0,0.004,0l0,0c0.21,0,0.385-0.161,0.4-0.37l0.36-4.14l0,0c0.008-0.047,0.008-0.094,0-0.141l0,0
		c-0.029-0.057-0.07-0.104-0.12-0.141l0,0c-0.048-0.031-0.103-0.055-0.16-0.061h-0.19L14.638,1159.647z"/>
	<path fill="#666666" d="M18.178,1169.336l0.28-0.391l0.22-0.33l0.24-0.41l0.189-0.359c0.07-0.141,0.141-0.288,0.2-0.43l0.17-0.381
		c0.06-0.148,0.11-0.299,0.16-0.439l0.14-0.409c0-0.14,0.08-0.31,0.12-0.459s0.07-0.28,0.1-0.421v-0.12l0,0
		c0.026-0.229,0.066-0.454,0.12-0.681c0.028-0.221-0.129-0.422-0.35-0.449c-0.221-0.025-0.423,0.13-0.45,0.352l0,0
		c-0.02,0.246-0.06,0.489-0.12,0.729c0,0.24-0.069,0.289-0.1,0.432c-0.026,0.129-0.06,0.256-0.1,0.379l-0.141,0.41
		c0,0.141-0.09,0.25-0.14,0.37c-0.05,0.118-0.11,0.261-0.17,0.38l-0.17,0.359l-0.19,0.359l-0.21,0.35l-0.22,0.33l-0.24,0.33
		l-0.25,0.312l-0.26,0.3l-0.27,0.291l-0.28,0.277l-0.3,0.271l-0.301,0.239l-0.329,0.25l-0.32,0.212l-0.36,0.229l-0.33,0.183
		l-0.38,0.198l-0.35,0.15l-0.39,0.16l-0.34,0.09l-0.391,0.129l-0.42,0.103l-0.38,0.077l-0.5,0.07h-1.2
		c-5.103-0.006-9.232-4.147-9.226-9.252c0.008-5.092,4.134-9.219,9.226-9.228h1.061l0.41,0.052l0.39,0.069l0.32,0.069l0.409,0.109
		l0.28,0.079l0.41,0.149l0.27,0.109l0.391,0.18l0.279,0.142l0.36,0.188l0.31,0.188l0.311,0.201l0.189,0.14
		c0.26,0.184,0.511,0.381,0.75,0.59c0.166,0.149,0.421,0.137,0.57-0.029s0.136-0.42-0.03-0.569l-0.439-0.351l0,0l-0.351-0.219
		l-0.13-0.103l0,0l-0.08-0.05l-0.35-0.221l-0.32-0.199l-0.399-0.221l-0.29-0.149l-0.44-0.188l-0.279-0.109l-0.46-0.16l-0.301-0.09
		l-0.46-0.121l-0.34-0.066l-0.43-0.08l-0.44-0.063h-1.189c-5.545,0-10.039,4.494-10.039,10.039s4.494,10.039,10.039,10.039h1.25
		l0.55-0.08l0.4-0.09l0.46-0.108l0.42-0.132l0.42-0.141l0.409-0.17l0.391-0.17l0.399-0.199l0.38-0.211l0.37-0.229l0.36-0.24
		l0.34-0.26l0.35-0.281l0.311-0.278l0.33-0.32l0.279-0.299l0.311-0.353L18.178,1169.336z"/>
</g>
<g>
	<path fill="#666666" d="M10.129,1228.391c-3.711,0.007-6.714,3.021-6.708,6.73c0.002,0.771,0.137,1.541,0.399,2.27
		c0.059,0.158,0.211,0.264,0.38,0.262h0.14c0.206-0.076,0.313-0.305,0.24-0.512l0,0c-1.134-3.061,0.428-6.461,3.488-7.596
		c1.099-0.406,2.292-0.477,3.431-0.205l-1.279,4.393h-0.051c-0.751-0.012-1.367,0.592-1.376,1.344
		c-0.01,0.75,0.592,1.367,1.343,1.375c0.751,0.01,1.367-0.592,1.377-1.342c0.005-0.432-0.192-0.837-0.533-1.1l1.27-4.35
		c3.014,1.158,4.543,4.516,3.439,7.551c-0.077,0.207,0.028,0.438,0.235,0.515c0.207,0.077,0.438-0.026,0.515-0.233l0,0
		c1.263-3.479-0.525-7.324-3.999-8.601l0.83-2.829c0.063-0.214-0.058-0.438-0.271-0.5c-0.213-0.063-0.437,0.059-0.5,0.271
		l-0.819,2.818C11.175,1228.504,10.654,1228.417,10.129,1228.391z"/>
	<path fill="#666666" d="M15.779,1226.801c-0.186-0.125-0.437-0.073-0.561,0.109c-0.124,0.186-0.075,0.438,0.11,0.561
		c4.225,2.844,5.345,8.572,2.502,12.796c-1.008,1.5-2.435,2.671-4.102,3.362c-0.969-1.982-3.363-2.809-5.349-1.84
		c-0.802,0.392-1.45,1.039-1.841,1.84c-4.684-1.998-6.859-7.414-4.86-12.098c1.451-3.4,4.793-5.604,8.489-5.601
		c0.222,0,0.4-0.181,0.4-0.399s-0.179-0.4-0.4-0.4l0,0l0,0c-5.521-0.096-10.074,4.307-10.17,9.826
		c-0.073,4.271,2.574,8.117,6.591,9.572h0.14c0.165-0.002,0.313-0.105,0.37-0.26c0.653-1.666,2.533-2.486,4.199-1.834
		c0.812,0.316,1.46,0.949,1.8,1.754l0,0c-0.002,0.021-0.002,0.047,0,0.068c0.06,0.158,0.212,0.264,0.381,0.262h0.14
		c5.188-1.895,7.858-7.635,5.965-12.822c-0.73-2-2.081-3.717-3.855-4.896H15.779L15.779,1226.801z"/>
</g>
<g>
	<path fill="#666666" d="M9.719,1295.846v2.398c0,0.221,0.179,0.398,0.399,0.398c0.22,0,0.4-0.18,0.4-0.398v-2.398
		c0-0.223-0.18-0.398-0.4-0.398C9.898,1295.446,9.719,1295.624,9.719,1295.846z"/>
	<path fill="#666666" d="M13.519,1289.786L13.519,1289.786c-0.81-0.307-1.718-0.207-2.44,0.27c-0.778,0.678-1.256,1.635-1.33,2.66
		c-2.148,0.109-3.854,1.852-3.919,4v4.17c0.092,2.283,2.005,4.066,4.289,4c2.284,0.066,4.197-1.717,4.29-4v-4.17
		c-0.063-2.125-1.729-3.854-3.85-4c0.069-0.768,0.427-1.48,1-2c0.525-0.326,1.176-0.381,1.75-0.146l0,0
		c4.764,1.73,7.222,6.998,5.489,11.764s-7,7.221-11.764,5.488c-4.765-1.732-7.223-7-5.489-11.766
		c0.801-2.203,2.417-4.018,4.514-5.066c0.187-0.119,0.24-0.367,0.121-0.553c-0.103-0.16-0.304-0.229-0.48-0.158
		c-4.938,2.471-6.938,8.479-4.467,13.418c2.471,4.938,8.478,6.938,13.416,4.467c4.938-2.473,6.938-8.479,4.467-13.418
		c-1.146-2.291-3.128-4.055-5.537-4.926L13.519,1289.786z M13.609,1296.676v4.168c-0.081,1.854-1.638,3.293-3.49,3.23
		c-1.854,0.066-3.414-1.377-3.489-3.23v-4.129c0.075-1.854,1.636-3.297,3.489-3.229c1.853-0.063,3.409,1.379,3.49,3.229V1296.676z"
		/>
</g>
<path fill="#666666" d="M10.139,1359.321c-5.522-0.002-10,4.475-10.001,9.996c-0.001,3.668,2.007,7.043,5.231,8.791h0.34l0.1-0.063
	l0,0l0.061-0.059c0.02-0.068,0.02-0.145,0-0.211v-8.932l2.749-2.748l2.75,2.748v6.131c0,0.223,0.179,0.4,0.4,0.4
	s0.399-0.18,0.399-0.4v-2.42h2.07v5.26c-0.003,0.025-0.003,0.055,0,0.08c-0.003,0.023-0.003,0.047,0,0.068l0,0v0.061h0.439
	c4.854-2.633,6.655-8.701,4.021-13.557c-1.75-3.227-5.129-5.236-8.801-5.229L10.139,1359.321z M15.138,1377.028v-4.92
	c0-0.223-0.179-0.398-0.399-0.398l0,0h-2.48v-3.08c-0.002-0.117-0.057-0.229-0.149-0.301l-3-3v-2.18c0-0.223-0.179-0.4-0.399-0.4
	c-0.222,0-0.4,0.18-0.4,0.4l0,0v2.18l-3,3c-0.116,0.07-0.188,0.195-0.189,0.33v8.41c-4.265-2.764-5.484-8.457-2.723-12.725
	c2.761-4.264,8.457-5.48,12.722-2.723c4.265,2.762,5.483,8.457,2.723,12.723c-0.706,1.09-1.634,2.02-2.723,2.725L15.138,1377.028z"
	/>
<path fill="#666666" d="M10.149,1423.225c-5.522-0.004-10.001,4.475-10.004,9.994c-0.001,2.759,1.137,5.395,3.145,7.283
	c0.147,0.166,0.4,0.18,0.564,0.033c0.165-0.148,0.179-0.4,0.032-0.566c-0.009-0.008-0.018-0.018-0.026-0.024l0,0
	c-3.717-3.487-3.902-9.329-0.414-13.048c3.488-3.717,9.328-3.9,13.045-0.413c3.717,3.487,3.902,9.329,0.414,13.048
	c-1.644,1.752-3.906,2.793-6.306,2.9v-5.539h4.789c0.221,0.002,0.401-0.178,0.402-0.396c0-0.045-0.008-0.09-0.022-0.131l-2.81-8.472
	c-0.052-0.166-0.206-0.278-0.38-0.278h-4.81c-0.174,0-0.328,0.112-0.38,0.278l-2.8,8.472c-0.072,0.209,0.038,0.436,0.247,0.508
	c0.001,0,0.002,0.002,0.003,0.002h0.13h4.779v5.529c-0.71-0.025-1.414-0.134-2.1-0.32c-0.213-0.061-0.434,0.063-0.495,0.275
	c-0.061,0.213,0.063,0.434,0.275,0.494l0,0c5.323,1.469,10.829-1.656,12.297-6.98c1.469-5.324-1.657-10.83-6.98-12.297
	c-0.847-0.234-1.72-0.354-2.597-0.359v0.01h0.002V1423.225z M10.149,1436.073h-4.63l2.54-7.668h4.18l2.54,7.668H10.149z"/>
<path fill="#666666" d="M10.119,1488.459c-5.522-0.018-10.012,4.447-10.028,9.969c-0.016,5.523,4.447,10.013,9.97,10.029
	c4.25,0.012,8.043-2.662,9.458-6.67c0.002-0.021,0.002-0.041,0-0.063c0.256-0.579,0.048-1.262-0.49-1.6l0,0l-5.129-3.43
	c-0.166-0.146-0.419-0.132-0.565,0.034s-0.131,0.418,0.035,0.563l0,0l0.09,0.062l5.149,3.431l0,0
	c0.227,0.137,0.299,0.434,0.162,0.66c-0.091,0.146-0.257,0.237-0.432,0.229H5.109c-0.27-0.014-0.479-0.241-0.467-0.512
	c0.007-0.152,0.083-0.291,0.207-0.379l0,0l8-5.369l0.05-0.051c0.965-0.645,1.227-1.945,0.583-2.912
	c-0.643-0.965-1.946-1.226-2.911-0.582c-0.201,0.133-0.378,0.301-0.521,0.494l0,0l-0.721,0.721c-0.132,0.176-0.097,0.428,0.08,0.562
	c0.143,0.104,0.338,0.104,0.48,0l0.75-0.75l0,0c0.45-0.565,1.274-0.659,1.841-0.209c0.565,0.45,0.659,1.274,0.208,1.841
	c-0.09,0.111-0.197,0.211-0.319,0.288l0,0l-7.999,5.351l0,0c-0.597,0.379-0.772,1.17-0.394,1.766c0.237,0.373,0.651,0.6,1.093,0.595
	h13.279c-2.242,4.538-7.741,6.401-12.281,4.159c-4.541-2.24-6.403-7.74-4.161-12.279c2.243-4.541,7.741-6.404,12.282-4.16
	c2.721,1.344,4.601,3.943,5.021,6.951c0.035,0.215,0.233,0.363,0.449,0.34c0.218-0.031,0.37-0.232,0.34-0.449
	C19.315,1492.151,15.102,1488.471,10.119,1488.459z"/>
<g>
	<circle fill="#666666" cx="5.26" cy="1558.993" r="1.199"/>
	<path fill="#666666" d="M10.129,1552.422c-5.521-0.004-10.002,4.471-10.006,9.992s4.47,10.002,9.992,10.008
		c3.927,0.002,7.491-2.295,9.113-5.871c0.003-0.023,0.003-0.053,0-0.08l0,0c0.005-0.034,0.005-0.07,0-0.107l0,0
		c0.004-0.033,0.004-0.066,0-0.102l0,0l-4.529-5.688c-0.164-0.162-0.427-0.162-0.59,0l0,0l-1.391,1.75l-2.8-3.631
		c-0.159-0.16-0.419-0.16-0.579,0l0,0l0,0l-5.91,7.43c-0.137,0.172-0.11,0.422,0.061,0.563c0.07,0.059,0.158,0.09,0.25,0.09
		c0.113,0.021,0.229-0.009,0.319-0.08l5.59-7l2.729,3.439l2.86,3.602c0.122,0.184,0.37,0.232,0.554,0.109
		c0.185-0.12,0.234-0.368,0.113-0.555c-0.015-0.021-0.03-0.039-0.048-0.057l-2.659-3.352l1.2-1.5l4.069,5.119
		c-2.225,4.563-7.727,6.455-12.287,4.23c-4.562-2.227-6.456-7.729-4.231-12.287c2.225-4.561,7.726-6.455,12.287-4.23
		c3.167,1.546,5.172,4.766,5.161,8.287c0,0.222,0.18,0.4,0.4,0.4c0.221-0.002,0.399-0.182,0.399-0.4l0,0
		c0.045-5.521-4.396-10.035-9.918-10.078c-0.001,0-0.001,0-0.001,0L10.129,1552.422z"/>
</g>
<path fill="#666666" d="M19.759,1620.688L19.759,1620.688l-0.061-0.08l0,0l-0.09-0.053h-0.21l-4.779,2.271l0,0l-3.81,1.811
	l-3.81-1.68l0,0l-2.74-1.24l6.55-3l4.569,2.291c0.21,0.1,0.461,0.01,0.56-0.201c0.1-0.209,0.011-0.461-0.199-0.561l0,0l-4.74-2.369
	h-0.31l-7.51,3.48c-0.201,0.09-0.291,0.324-0.201,0.525c0.04,0.09,0.112,0.162,0.201,0.201l1.53,0.691
	c-0.002,0.021-0.002,0.045,0,0.066v2.813c0,0.221,0.179,0.398,0.399,0.398c0.222,0,0.4-0.18,0.4-0.398l0,0l0,0v-2.521l1,0.449v3.541
	c-0.01,0.049-0.01,0.1,0,0.148l0.06,0.09l0,0c2.26,2.348,5.992,2.418,8.34,0.16l0.16-0.16c0.038-0.035,0.068-0.08,0.09-0.129
	c0.009-0.051,0.009-0.104,0-0.15l0,0v-3.629l4.119-2c0.16,0.676,0.244,1.365,0.25,2.059c0.001,5.082-4.118,9.201-9.198,9.201
	c-5.081,0-9.199-4.119-9.2-9.199c0-5.08,4.118-9.199,9.199-9.199c2.134,0,4.202,0.742,5.85,2.102
	c0.171,0.141,0.424,0.115,0.565-0.059c0.141-0.17,0.116-0.424-0.056-0.563l0,0c-4.259-3.514-10.562-2.912-14.076,1.348
	c-3.514,4.262-2.912,10.563,1.348,14.076c4.259,3.518,10.562,2.912,14.076-1.348c2.088-2.529,2.802-5.92,1.912-9.076
	L19.759,1620.688z M14.169,1626.788c-1.977,1.959-5.163,1.959-7.14,0v-3l3.4,1.549c0.056,0.012,0.113,0.012,0.17,0
	c0.056,0.014,0.113,0.014,0.17,0l3.399-1.609L14.169,1626.788L14.169,1626.788z"/>
<g>
	<path fill="#666666" d="M10.139,1742.458c-5.522,0-9.998,4.479-9.997,10c0.001,5.523,4.479,9.998,10.001,9.998
		c2.274,0,4.481-0.777,6.255-2.201c0.158-0.152,0.162-0.406,0.008-0.563c-0.134-0.141-0.348-0.16-0.508-0.057
		c-3.974,3.201-9.789,2.574-12.99-1.396c-3.201-3.977-2.575-9.791,1.398-12.992c3.973-3.201,9.79-2.574,12.991,1.4
		c1.89,2.346,2.518,5.467,1.681,8.359c-0.061,0.213,0.063,0.436,0.275,0.494c0.212,0.063,0.434-0.063,0.495-0.275l0,0
		c1.54-5.303-1.51-10.85-6.813-12.391c-0.909-0.264-1.851-0.396-2.797-0.396L10.139,1742.458L10.139,1742.458z"/>
	<path fill="#666666" d="M8.059,1747.676H5.75c-0.221,0-0.4,0.182-0.4,0.4l0,0l0,0v2.41c0,0.221,0.18,0.396,0.4,0.396
		s0.399-0.178,0.399-0.396l0,0l0,0v-2h1.91c0.221,0,0.4-0.182,0.4-0.4s-0.18-0.399-0.4-0.399V1747.676z"/>
	<path fill="#666666" d="M14.978,1748.067L14.978,1748.067c0-0.223-0.179-0.4-0.399-0.4l0,0h-2.38c-0.221,0-0.4,0.18-0.4,0.4
		c0,0.22,0.18,0.396,0.4,0.396h1.93v2c0,0.225,0.179,0.4,0.4,0.4c0.221,0,0.399-0.18,0.399-0.4L14.978,1748.067z"/>
	<path fill="#666666" d="M14.129,1754.446v2h-1.93c-0.221,0-0.4,0.18-0.4,0.398c0,0.222,0.18,0.398,0.4,0.398h2.33
		c0.221,0,0.399-0.178,0.399-0.398l0,0l0,0v-2.408c0-0.223-0.179-0.4-0.399-0.4c-0.222,0-0.4,0.18-0.4,0.4V1754.446z"/>
	<path fill="#666666" d="M5.75,1754.045c-0.221,0-0.4,0.181-0.4,0.4l0,0l0,0v2.41c0,0.221,0.18,0.398,0.4,0.398l0,0h2.31
		c0.221,0,0.4-0.18,0.4-0.398c0-0.222-0.18-0.4-0.4-0.4H6.15v-2c0.006-0.221-0.169-0.404-0.39-0.41l0,0H5.75z"/>
</g>
<path fill="#666666" d="M19.058,1682.903c-0.063-0.121-0.184-0.201-0.32-0.211h-0.189l-0.08,0.061l0,0v0.061l-2.859,5.539
	l-8.25,2.49l5.71-5.711c0.162,0.08,0.34,0.121,0.52,0.121c0.668,0.006,1.216-0.529,1.223-1.197s-0.529-1.217-1.197-1.223
	c-0.668-0.008-1.216,0.529-1.223,1.197c-0.002,0.184,0.038,0.363,0.117,0.531l-5.709,5.709l2.489-8.25l5.53-2.84l0,0l0.06-0.049
	l0.05-0.063l0,0c0.003-0.025,0.003-0.053,0-0.078c0.003-0.023,0.003-0.049,0-0.07c0.003-0.021,0.003-0.047,0-0.07v-0.078l0,0v-0.061
	l-0.069-0.051l0,0c-4.911-2.527-10.939-0.594-13.467,4.314c-2.526,4.91-0.594,10.939,4.317,13.469
	c0.986,0.508,2.051,0.848,3.149,1.006c0.48,0.071,0.965,0.105,1.45,0.107h1c0.243-0.012,0.484-0.049,0.72-0.107l0.31-0.063
	c0.261-0.061,0.521-0.121,0.78-0.198l0.18-0.062c5.241-1.596,8.196-7.137,6.601-12.379c-0.18-0.59-0.414-1.164-0.701-1.711
	L19.058,1682.903z M14.549,1695.562c-0.26,0.142-0.52,0.261-0.779,0.38h-0.061c-1.13,0.479-2.344,0.723-3.569,0.721H9.329
	c-0.242-0.015-0.482-0.047-0.72-0.101h-0.12c-0.293-0.062-0.586-0.134-0.88-0.222c-4.867-1.455-7.635-6.58-6.18-11.446v-0.002
	c0.074-0.246,0.157-0.487,0.25-0.729c0.009-0.047,0.009-0.094,0-0.141c1.924-4.672,7.262-6.906,11.939-5l-4.939,2.527
	c-0.097,0.052-0.169,0.138-0.2,0.24l-3,9.938l0,0c-0.001,0.021-0.001,0.041,0,0.062c-0.004,0.033-0.004,0.066,0,0.1l0,0
	c0.024,0.074,0.069,0.143,0.13,0.189l0,0c0.061,0.037,0.13,0.059,0.2,0.061h0.12l10.1-3.049l2.64-5.121
	C20.434,1688.321,18.664,1693.303,14.549,1695.562z"/>
<g>
	<path fill="#666666" d="M6.979,1815.84c0,0.221,0.179,0.4,0.4,0.4l0,0h5.47c0.221,0,0.399-0.182,0.399-0.4
		s-0.179-0.399-0.399-0.399h-5.45c-0.221-0.013-0.408,0.157-0.42,0.38c0,0.002,0,0.002,0,0.002V1815.84z"/>
	<path fill="#666666" d="M12.659,1807.182c-0.081-0.027-0.169-0.027-0.25,0c-1.511,0.037-2.708,1.287-2.68,2.801v3.318h-0.26
		c-1.08-1.221-2.944-1.334-4.164-0.254c-0.48,0.426-0.809,0.994-0.936,1.623l-0.811,4.629l0,0c-0.018,0.127-0.018,0.254,0,0.381
		c-0.004,0.9,0.723,1.635,1.622,1.639c0.599,0.004,1.15-0.322,1.438-0.85l1.159-1.27h4.77l1.11,1.28
		c0.285,0.522,0.834,0.849,1.43,0.851c0.917-0.013,1.651-0.765,1.64-1.681l0,0l0,0c0.016-0.101,0.016-0.201,0-0.302l0,0l-0.81-4.629
		c-0.373-1.615-1.983-2.621-3.598-2.248c-0.569,0.131-1.088,0.426-1.492,0.849h-0.27v-3.38c0-1.104,0.896-2,2-2l0,0
		c4.895,1.339,7.777,6.395,6.438,11.287c-1.339,4.896-6.394,7.779-11.288,6.439c-4.896-1.34-7.778-6.395-6.439-11.289
		c0.723-2.642,2.585-4.82,5.079-5.949c0.201-0.09,0.291-0.328,0.2-0.529c-0.091-0.2-0.328-0.291-0.53-0.198
		c-5.033,2.271-7.273,8.19-5.002,13.228c2.271,5.033,8.192,7.272,13.227,5.002c5.033-2.271,7.273-8.192,5.002-13.228
		c-1.242-2.754-3.664-4.799-6.587-5.563v0.042L12.659,1807.182L12.659,1807.182z M10.809,1814.1c0.217-0.002,0.424-0.088,0.58-0.238
		c0.78-0.896,2.139-0.986,3.033-0.205c0.359,0.313,0.604,0.737,0.696,1.205l0.8,4.568c-0.006,0.063-0.006,0.119,0,0.182v0.148
		c0.014,0.459-0.346,0.84-0.805,0.855c-0.33,0.01-0.634-0.179-0.775-0.477l-0.05-0.079l-1.16-1.392
		c-0.169-0.168-0.401-0.26-0.64-0.25h-4.72c-0.249-0.012-0.49,0.088-0.66,0.271l-1.13,1.34l-0.05,0.08
		c-0.196,0.413-0.691,0.592-1.105,0.395c-0.295-0.139-0.48-0.438-0.475-0.764v-0.15l0.811-4.74c0.238-1.161,1.374-1.911,2.537-1.674
		c0.453,0.095,0.864,0.33,1.172,0.674l0.061,0.063c0.149,0.129,0.342,0.201,0.54,0.199L10.809,1814.1z"/>
</g>
<path fill="#666666" d="M19.778,1876.937c-0.221,0-0.399,0.179-0.399,0.397l0,0l0,0c0,5.092-4.127,9.221-9.219,9.221
	c-5.092,0-9.22-4.127-9.22-9.219c-0.001-5.092,4.126-9.219,9.218-9.219c3.416-0.002,6.553,1.889,8.15,4.907h-7.14
	c-0.376-0.013-0.739,0.138-1,0.409c-0.26-0.271-0.623-0.422-0.999-0.409h-4.69c-0.221,0-0.399,0.179-0.399,0.399l0,0H4.059v7.81
	c0,0.222,0.18,0.399,0.4,0.399l0,0h4.659c0.372-0.014,0.726-0.16,1-0.41c0.274,0.25,0.629,0.396,1,0.41h4.649
	c0.222,0,0.4-0.18,0.4-0.399l0,0l0,0v-6.538c0-0.223-0.179-0.4-0.4-0.4c-0.221,0-0.399,0.18-0.399,0.4l0,0v6.129h-4.16
	c-0.323,0.035-0.614-0.199-0.649-0.523c-0.005-0.041-0.005-0.084,0-0.127v-5.748c-0.018-0.318,0.229-0.594,0.548-0.609
	c0.001,0,0.001,0,0.002,0h7.999l0.08-0.063l0.061-0.09l0,0c0.044-0.103,0.044-0.217,0-0.318c-2.241-5.049-8.149-7.322-13.196-5.084
	c-5.048,2.242-7.323,8.15-5.083,13.197c2.241,5.047,8.149,7.322,13.196,5.082c3.609-1.602,5.938-5.178,5.942-9.127
	c0.049-0.215-0.087-0.43-0.302-0.479c-0.003,0-0.006,0-0.008,0L19.778,1876.937L19.778,1876.937z M9.779,1880.196
	c0.035,0.322-0.197,0.613-0.52,0.646H4.88v-6.998h4.27c0.314-0.021,0.587,0.213,0.61,0.525c0.002,0.029,0.002,0.057,0,0.084v5.75
	L9.779,1880.196z"/>
<g>
	<path fill="#666666" d="M8.159,1940.549h4.11c0.771,0.082,1.354,0.734,1.35,1.51h-3.56c-0.529-0.133-0.98-0.477-1.25-0.947
		c-0.091-0.201-0.328-0.291-0.53-0.201c-0.201,0.092-0.291,0.33-0.2,0.53c0.382,0.718,1.058,1.231,1.851,1.409h4.129
		c0.222,0,0.4-0.18,0.4-0.398l0,0l0,0c0.178-1.314-0.743-2.521-2.057-2.699c-0.001,0-0.002,0-0.003,0h-4.24
		c-0.851,0.094-1.616-0.521-1.71-1.371c-0.007-0.061-0.01-0.119-0.01-0.18v-9c0.521,0.08,1.351,0.352,1.351,1.221v8.119
		c-0.001,0.221,0.179,0.399,0.399,0.399c0.22,0,0.399-0.179,0.4-0.397c0-0.002,0-0.002,0-0.002l0,0v-8.119
		c0-1.608-1.67-2.049-2.55-2.061c-0.108-0.014-0.215,0.034-0.28,0.12c-0.075,0.073-0.118,0.175-0.12,0.278v9.47
		c0,1.293,1.048,2.34,2.34,2.34L8.159,1940.549z"/>
	<path fill="#666666" d="M10.119,1927.28c-0.221,0-0.399,0.18-0.399,0.398c0,0.222,0.179,0.4,0.399,0.4l0,0
		c5.069,0,9.18,4.109,9.181,9.178c0,5.07-4.109,9.182-9.179,9.184c-5.069,0-9.18-4.109-9.18-9.182
		c-0.001-2.566,1.076-5.021,2.969-6.76c0.159-0.152,0.165-0.406,0.012-0.563c-0.147-0.154-0.391-0.166-0.552-0.025
		c-4.07,3.732-4.344,10.059-0.611,14.127c3.732,4.07,10.058,4.344,14.128,0.611c4.07-3.733,4.344-10.059,0.611-14.127
		c-1.896-2.068-4.573-3.244-7.379-3.24V1927.28z"/>
</g>
<g>
	<path fill="#666666" d="M17.978,2049.92c-0.121-0.187-0.37-0.236-0.555-0.115c-0.186,0.121-0.236,0.369-0.115,0.556v0.062
		c3.181,3.961,2.548,9.752-1.413,12.932c-3.962,3.183-9.752,2.55-12.933-1.412c-3.182-3.963-2.548-9.752,1.413-12.934
		c1.632-1.313,3.661-2.023,5.753-2.025c0.863,0,1.722,0.121,2.55,0.359c0.213,0.061,0.435-0.063,0.495-0.275
		s-0.063-0.434-0.274-0.494l0,0c-5.302-1.545-10.853,1.5-12.397,6.804c-1.545,5.302,1.501,10.853,6.803,12.396
		c5.302,1.544,10.852-1.5,12.396-6.803c0.913-3.134,0.24-6.515-1.803-9.058L17.978,2049.92z"/>
	<path fill="#666666" d="M6.689,2052.491h-0.17l-1.949,0.84v0.16c0.182-0.088,0.378-0.145,0.579-0.16
		c0.078-0.004,0.154,0.025,0.21,0.08c0.058,0.068,0.083,0.16,0.07,0.25c-0.04,0.338-0.11,0.674-0.21,1l-1,3.818
		c-0.055,0.264-0.143,0.52-0.26,0.76c-0.068,0.09-0.157,0.158-0.26,0.201c-0.217,0.068-0.443,0.098-0.67,0.09v0.189h2.619
		l0.051-0.189c-0.208,0.01-0.415-0.02-0.61-0.09c-0.085-0.043-0.143-0.125-0.15-0.221c0.022-0.252,0.072-0.5,0.15-0.74
		L6.689,2052.491z"/>
	<path fill="#666666" d="M10.699,2053.581c0.305-0.254,0.641-0.465,1-0.631c0.384-0.148,0.789-0.24,1.2-0.271l0.05-0.188h-0.3
		c-0.433,0.01-0.861,0.088-1.271,0.229c-0.574,0.209-1.111,0.51-1.59,0.893c-0.576,0.426-1.082,0.938-1.5,1.52
		c-0.393,0.549-0.685,1.16-0.859,1.813c-0.295,0.813-0.167,1.719,0.34,2.42c0.269,0.326,0.678,0.506,1.1,0.479
		c0.745-0.016,1.45-0.338,1.95-0.889c0.474-0.439,0.819-1,1-1.621c0.175-0.494,0.128-1.041-0.13-1.5
		c-0.235-0.377-0.655-0.6-1.101-0.578c-0.586,0.023-1.155,0.203-1.649,0.521c0.227-0.438,0.495-0.854,0.8-1.24
		C10.022,2054.178,10.344,2053.858,10.699,2053.581z M9.519,2055.78c0.145-0.07,0.301-0.113,0.46-0.131
		c0.4-0.021,0.755,0.256,0.83,0.648c0.114,0.51,0.094,1.041-0.061,1.541c-0.106,0.465-0.347,0.889-0.689,1.219
		c-0.245,0.258-0.577,0.41-0.93,0.432c-0.223,0.012-0.437-0.08-0.58-0.25c-0.195-0.271-0.301-0.598-0.3-0.932
		c-0.021-0.365,0.017-0.732,0.109-1.09c0.111-0.387,0.245-0.77,0.4-1.143C9.005,2055.961,9.26,2055.862,9.519,2055.78L9.519,2055.78
		z"/>
	<path fill="#666666" d="M12.659,2058.918c-0.119,0-0.235,0.039-0.33,0.111c-0.092,0.064-0.159,0.159-0.189,0.27
		c-0.032,0.148,0.032,0.3,0.159,0.382c0.285,0.151,0.609,0.216,0.931,0.181c0.895,0.021,1.766-0.291,2.439-0.882
		c0.485-0.418,0.834-0.972,1-1.591c0.13-0.36,0.13-0.758,0-1.118c-0.159-0.336-0.442-0.599-0.79-0.729
		c0.636-0.356,1.129-0.922,1.399-1.601c0.085-0.298,0.046-0.612-0.109-0.882c-0.248-0.391-0.699-0.604-1.16-0.549
		c-0.45-0.006-0.891,0.131-1.26,0.389c-0.417,0.302-0.776,0.673-1.06,1.104l0.149,0.08c0.376-0.507,0.952-0.824,1.58-0.871
		c0.289-0.021,0.569,0.104,0.75,0.33c0.165,0.26,0.202,0.58,0.1,0.871c-0.073,0.276-0.206,0.537-0.39,0.76
		c-0.209,0.246-0.468,0.447-0.76,0.59c-0.283,0.152-0.592,0.254-0.91,0.3v0.159h0.17c0.26-0.002,0.517,0.058,0.75,0.17
		c0.195,0.088,0.369,0.22,0.51,0.382c0.095,0.129,0.156,0.28,0.181,0.438c0.062,0.264,0.062,0.537,0,0.801
		c-0.104,0.396-0.337,0.746-0.66,0.998c-0.277,0.248-0.63,0.395-1,0.41c-0.136,0.002-0.271-0.021-0.4-0.06
		c-0.134-0.054-0.261-0.118-0.38-0.2c-0.099-0.091-0.206-0.17-0.319-0.24C12.927,2058.883,12.79,2058.883,12.659,2058.918z"/>
</g>
<g>
	<path fill="#666666" d="M12.829,2085.346c0-0.209-0.17-0.379-0.38-0.379H5.2c-0.213-0.034-0.413,0.109-0.447,0.322
		c-0.034,0.213,0.11,0.414,0.322,0.447c0.041,0.008,0.083,0.008,0.125,0h7.249c0.21,0,0.38-0.17,0.38-0.379V2085.346z"/>
	<path fill="#666666" d="M6.12,2088.387c0.191,0.002,0.354-0.141,0.38-0.33l0.17-1.34c0.027-0.211-0.12-0.402-0.33-0.43
		c-0.21-0.029-0.402,0.118-0.43,0.33l0,0l-0.17,1.299c-0.03,0.207,0.112,0.399,0.319,0.43H6.12V2088.387z"/>
	<path fill="#666666" d="M8.689,2088.377L8.689,2088.377c0.191,0.002,0.354-0.142,0.38-0.33l0.17-1.34
		c0.027-0.211-0.12-0.402-0.33-0.431c-0.21-0.029-0.402,0.118-0.43,0.327l-0.17,1.313c-0.029,0.209,0.115,0.398,0.323,0.43
		c0.002,0,0.005,0,0.007,0L8.689,2088.377z"/>
	<path fill="#666666" d="M10.479,2094.997L10.479,2094.997c0.198,0,0.364-0.152,0.38-0.35l0.41-4.189h1
		c0.212-0.035,0.356-0.236,0.322-0.447c-0.026-0.166-0.156-0.297-0.322-0.324h-3.29v-0.51c0.02-0.209-0.135-0.395-0.345-0.414
		c-0.21-0.019-0.396,0.135-0.415,0.344l-0.061,0.58h-3.27c-0.213,0.035-0.357,0.234-0.322,0.447
		c0.026,0.166,0.156,0.297,0.322,0.324h1.09l-0.399,4.109c-0.023,0.209,0.127,0.396,0.336,0.42c0.001,0,0.002,0,0.004,0h0.06
		c0.199,0,0.364-0.152,0.38-0.352l0.41-4.189h1.29l-0.4,4.109c-0.022,0.207,0.128,0.396,0.336,0.418
		c0.002,0.002,0.003,0.002,0.005,0.002h0.06c0.198,0,0.364-0.15,0.38-0.352l0.41-4.189h1.67l-0.4,4.111
		c-0.036,0.203,0.097,0.396,0.3,0.438L10.479,2094.997z"/>
	<path fill="#666666" d="M11.129,2088.387c0.192,0.002,0.355-0.141,0.38-0.33l0.171-1.34c0.027-0.211-0.12-0.402-0.33-0.43
		c-0.21-0.029-0.402,0.118-0.431,0.33l-0.17,1.34c-0.029,0.207,0.113,0.397,0.32,0.43H11.129L11.129,2088.387z"/>
	<path fill="#666666" d="M15.549,2087.917c-0.182-0.105-0.414-0.043-0.52,0.139v0.002l0,0l-1.82,3.16
		c-0.104,0.182-0.042,0.414,0.141,0.52c0.182,0.104,0.414,0.041,0.52-0.141l1.819-3.16
		C15.794,2088.254,15.731,2088.022,15.549,2087.917C15.55,2087.917,15.55,2087.917,15.549,2087.917L15.549,2087.917z"/>
	<path fill="#666666" d="M15.549,2091.127c-0.182-0.104-0.414-0.043-0.52,0.139l0,0l0,0l-1.82,3.16
		c-0.104,0.182-0.042,0.414,0.141,0.521c0.182,0.104,0.414,0.043,0.52-0.142l1.819-3.158
		C15.794,2091.465,15.731,2091.233,15.549,2091.127c0.001,0,0.001,0,0-0.002V2091.127z"/>
	<path fill="#666666" d="M19.658,2086.547c-0.068-0.211-0.295-0.323-0.505-0.256c-0.21,0.07-0.324,0.295-0.255,0.506l0,0
		c1.577,4.863-1.089,10.086-5.953,11.662c-4.865,1.576-10.087-1.09-11.663-5.952c-1.576-4.864,1.089-10.086,5.954-11.662
		c3.127-1.015,6.558-0.293,9.013,1.894l-0.12,0.201l0,0l-0.1,0.18l0,0l-2.8,4.897c-0.075,0.202,0.027,0.429,0.229,0.502
		c0.158,0.06,0.336,0.011,0.441-0.121l2.729-4.771l0.479-0.801l0,0c0.093-0.16,0.064-0.363-0.069-0.49
		c-4.007-3.801-10.336-3.633-14.137,0.375c-3.8,4.006-3.633,10.334,0.374,14.135c4.007,3.802,10.336,3.634,14.136-0.373
		c2.514-2.648,3.382-6.459,2.267-9.938L19.658,2086.547z"/>
</g>
<path fill="#666666" d="M10.26,875.412c-1.05-0.002-2.093,0.163-3.09,0.489c-0.168,0.059-0.274,0.224-0.261,0.398v13.659
	c0.007,0.221,0.191,0.396,0.412,0.388c0.063-0.002,0.123-0.019,0.179-0.048l8.479-4.88c0.19-0.111,0.255-0.354,0.143-0.547
	c-0.034-0.061-0.083-0.108-0.143-0.143l-6.709-3.86c-0.205-0.081-0.438,0.019-0.52,0.225c-0.066,0.166-0.014,0.356,0.13,0.467l0,0
	l6.099,3.521l-7.259,4.189v-12.699c4.833-1.396,9.883,1.391,11.279,6.225c1.396,4.833-1.391,9.883-6.224,11.279
	c-4.834,1.396-9.884-1.392-11.279-6.226c-0.773-2.679-0.278-5.563,1.344-7.828c0.11-0.191,0.043-0.438-0.148-0.547
	c-0.166-0.096-0.376-0.061-0.501,0.087c-3.153,4.466-2.089,10.643,2.377,13.796c4.466,3.151,10.643,2.089,13.796-2.377
	c3.153-4.468,2.089-10.645-2.377-13.797c-1.67-1.18-3.663-1.813-5.707-1.813L10.26,875.412z"/>
<polygon fill="#FF3333" points="3.42,303.341 1.46,303.341 6.019,289.532 7.979,289.532 "/>
<g>
	<path fill="#CCCCCC" d="M92.052,116.388c-3.865,0-7-3.134-7-7c0-3.866,3.135-7,7-7s6.999,3.134,6.999,7l0,0l0,0
		C99.052,113.254,95.918,116.388,92.052,116.388z M92.052,103.389c-3.313,0.028-5.978,2.736-5.949,6.049
		c0.027,3.313,2.736,5.977,6.049,5.949c3.274-0.027,5.924-2.675,5.949-5.949c0.028-3.313-2.636-6.021-5.949-6.049
		C92.119,103.388,92.086,103.388,92.052,103.389L92.052,103.389z"/>
	<path fill="#CCCCCC" d="M92.212,111.288c-0.124,0-0.242-0.051-0.33-0.14l-2.828-2.85c-0.162-0.204-0.125-0.5,0.077-0.66
		c0.171-0.134,0.411-0.134,0.582,0l2.521,2.52l2.529-2.52c0.203-0.161,0.5-0.125,0.659,0.079c0.136,0.171,0.136,0.411,0,0.582
		l-2.858,2.85C92.47,111.241,92.345,111.292,92.212,111.288z"/>
</g>
<g>
	<path fill="#CCCCCC" d="M90.452,248.406c-0.254,0.001-0.461-0.203-0.463-0.457c0-0.107,0.035-0.21,0.104-0.293l3.561-4.35
		l-3.6-4.16c-0.166-0.193-0.145-0.484,0.049-0.65c0.194-0.166,0.484-0.144,0.649,0.05l0,0l3.8,4.459c0.143,0.171,0.143,0.419,0,0.59
		l-3.8,4.649C90.677,248.336,90.569,248.394,90.452,248.406z"/>
	<path fill="#CCCCCC" d="M93.692,248.406c-0.254,0.001-0.463-0.203-0.463-0.457c-0.002-0.107,0.035-0.21,0.103-0.293l3.56-4.35
		l-3.55-4.16c-0.165-0.193-0.143-0.484,0.052-0.65c0.191-0.166,0.482-0.144,0.648,0.05l0,0l3.8,4.459
		c0.144,0.171,0.144,0.419,0,0.59l-3.79,4.649C93.962,248.351,93.83,248.409,93.692,248.406z"/>
</g>
<g>
	<path fill="#666666" d="M17.891,942.726c-0.139,0-0.268-0.069-0.341-0.188c-0.14-0.257-0.384-0.439-0.67-0.5
		c-0.418-0.032-0.835,0.08-1.18,0.32c-0.18,0.129-0.43,0.089-0.56-0.093c-0.13-0.179-0.09-0.43,0.09-0.56
		c0.525-0.363,1.165-0.523,1.8-0.45c0.504,0.104,0.94,0.416,1.2,0.86c0.121,0.185,0.07,0.433-0.114,0.554
		c-0.067,0.044-0.146,0.067-0.226,0.066L17.891,942.726L17.891,942.726z"/>
	<path fill="#666666" d="M13.45,953.545c-0.069,0.001-0.139-0.016-0.199-0.05l-8.6-5c-0.193-0.106-0.264-0.35-0.156-0.543
		c0.036-0.066,0.091-0.12,0.156-0.156l10.609-6.148c0.193-0.11,0.439-0.045,0.55,0.148s0.043,0.439-0.15,0.55l-9.999,5.812
		l7.42,4.29v-5.271c0-0.224,0.181-0.405,0.404-0.405c0.223,0,0.405,0.184,0.405,0.405v5.999c0,0.221-0.179,0.4-0.4,0.4l0,0
		L13.45,953.545z"/>
	<path fill="#666666" d="M10.21,958.234c-5.55,0.009-10.057-4.483-10.065-10.033s4.483-10.056,10.034-10.064c0.01,0,0.021,0,0.031,0
		c0.444,0.001,0.889,0.031,1.33,0.09c0.221,0.03,0.375,0.234,0.345,0.455c-0.03,0.223-0.234,0.375-0.455,0.347
		c-0.404-0.055-0.812-0.08-1.22-0.08c-5.108,0.006-9.245,4.149-9.239,9.259c0.006,5.106,4.151,9.245,9.259,9.239
		c5.104-0.005,9.239-4.146,9.239-9.249c0.007-2.028-0.662-4.002-1.899-5.609c-0.136-0.177-0.102-0.43,0.075-0.563
		c0.177-0.137,0.43-0.104,0.564,0.073l0,0c1.348,1.747,2.076,3.896,2.07,6.102C20.264,953.745,15.759,958.234,10.21,958.234z"/>
</g>
<g id="Page-1">
	<g id="sprite_title20181203" transform="translate(-1.000000, -2121.000000)">
		<g id="分组" transform="translate(1.000000, 2120.000000)">
			<path id="Fill-1" fill="#666666" d="M10.086,2123.996v0.475c0.785,0.001,1.417,0.634,1.419,1.419
				c-0.002,0.784-0.634,1.418-1.419,1.42c-0.783-0.002-1.418-0.636-1.42-1.42c0.002-0.785,0.637-1.418,1.42-1.419V2123.996v-0.474
				c-1.307,0.001-2.365,1.06-2.366,2.367c0.001,1.308,1.06,2.365,2.366,2.366c1.308,0,2.366-1.061,2.366-2.366
				c0-1.308-1.059-2.366-2.366-2.367V2123.996z"/>
			<path id="Fill-3" fill="#666666" d="M17.026,2130.936h-0.473c-0.003,0.785-0.636,1.418-1.421,1.421
				c-0.782-0.003-1.418-0.638-1.418-1.421c0-0.782,0.636-1.418,1.418-1.418c0.785,0,1.418,0.635,1.421,1.418H17.026H17.5
				c0-1.307-1.059-2.364-2.367-2.364c-1.305,0-2.364,1.058-2.364,2.364c0,1.308,1.06,2.365,2.364,2.367
				c1.309,0,2.367-1.06,2.367-2.367H17.026z"/>
			<path id="Fill-5" fill="#666666" d="M10.086,2137.877v-0.475c-0.783-0.001-1.418-0.635-1.42-1.42
				c0.002-0.783,0.637-1.418,1.42-1.419c0.785,0.001,1.417,0.636,1.419,1.419c-0.002,0.785-0.634,1.419-1.419,1.42V2137.877v0.473
				c1.308,0,2.366-1.061,2.366-2.367c0-1.305-1.059-2.365-2.366-2.365c-1.307,0-2.365,1.061-2.366,2.365
				c0.001,1.307,1.06,2.367,2.366,2.367V2137.877z"/>
			<path id="Fill-7" fill="#666666" d="M3.147,2130.936H3.62c0.002-0.782,0.636-1.418,1.42-1.418s1.418,0.635,1.419,1.418
				c-0.001,0.785-0.635,1.418-1.419,1.421c-0.784-0.003-1.418-0.638-1.42-1.421H3.147H2.674c0,1.308,1.059,2.365,2.365,2.367
				c1.307,0,2.365-1.06,2.365-2.367c0-1.307-1.059-2.364-2.365-2.364s-2.365,1.058-2.365,2.364H3.147z"/>
			<path id="Fill-9" fill="#666666" d="M10.086,2129.674c0.697,0,1.262,0.565,1.262,1.263c0,0.696-0.564,1.261-1.262,1.261
				s-1.262-0.564-1.262-1.261C8.825,2130.239,9.389,2129.674,10.086,2129.674"/>
			<g transform="translate(0.000000, 0.872900)">
				<g id="Clip-12">
				</g>
				<defs>
					<filter id="Adobe_OpacityMaskFilter" filterUnits="userSpaceOnUse" x="0.15" y="2120.127" width="20.529" height="19.873">
						<feColorMatrix  type="matrix" values="1 0 0 0 0  0 1 0 0 0  0 0 1 0 0  0 0 0 1 0"/>
					</filter>
				</defs>
				<mask maskUnits="userSpaceOnUse" x="0.15" y="2120.127" width="20.529" height="19.873" id="mask-2_2_">
					<g filter="url(#Adobe_OpacityMaskFilter)">
						<polygon id="path-1_2_" fill="#FFFFFF" points="0.15,2120.127 20.679,2120.127 20.679,2140 0.15,2140 						"/>
					</g>
				</mask>
				<path id="Fill-11" mask="url(#mask-2_2_)" fill="#666666" d="M20.491,2139.273l0.104-0.11c0.041-0.058,0.086-0.153,0.084-0.271
					c0.003-0.129-0.057-0.244-0.108-0.305c-0.106-0.115-0.166-0.125-0.205-0.143l-0.12-0.029c-0.146-0.018-0.304-0.013-0.566-0.016
					h-0.272c-0.44,0-0.993-0.002-1.456-0.029c-0.23-0.014-0.439-0.035-0.592-0.061l-0.173-0.039l-0.032-0.012l-0.051,0.113
					l0.072-0.098l-0.021-0.016l-0.051,0.113l0.072-0.098h0.002c-0.153-0.113-0.221-0.197-0.25-0.248l-0.035-0.16l0.006-0.098l0,0
					l-0.139-0.015l0.135,0.038l0.004-0.023l-0.139-0.015l0.135,0.038c-0.003-0.02,0.123-0.249,0.256-0.425
					c0.13-0.183,0.282-0.366,0.313-0.396l0.002-0.002c1.691-1.799,2.559-4.293,2.559-6.908c0-5.486-4.448-9.936-9.937-9.936
					s-9.937,4.449-9.937,9.936c0,5.488,4.448,9.938,9.937,9.938c1.259,0.002,2.277-0.24,3.366-0.663
					c0.244-0.094,0.365-0.368,0.271-0.612c-0.094-0.242-0.368-0.364-0.611-0.27c-1.025,0.393-1.886,0.596-3.026,0.598
					c-2.484,0-4.729-1.005-6.357-2.633c-1.627-1.627-2.633-3.873-2.633-6.357c0-2.482,1.006-4.728,2.633-6.355
					c1.629-1.628,3.873-2.633,6.357-2.634c2.484,0.001,4.729,1.006,6.357,2.634c1.627,1.628,2.632,3.873,2.632,6.355
					c0.001,2.408-0.8,4.668-2.301,6.259l0.003-0.002c-0.096,0.102-0.259,0.301-0.429,0.541c-0.084,0.118-0.165,0.243-0.234,0.37
					c-0.068,0.132-0.132,0.246-0.158,0.439v0.001l-0.011,0.196c-0.002,0.195,0.042,0.423,0.159,0.627
					c0.115,0.204,0.286,0.376,0.505,0.539l0.001,0.001c0.211,0.144,0.379,0.167,0.59,0.21c0.612,0.102,1.532,0.102,2.206,0.104
					h0.272c0.158,0,0.289,0,0.371,0.002l0.072,0.004l0.027-0.282l-0.07,0.274l0.043,0.008l0.027-0.282l-0.07,0.274l0.111-0.431
					l-0.221,0.385l0.109,0.046l0.111-0.431l-0.221,0.385l0.23-0.405l-0.357,0.3l0.127,0.105l0.23-0.405l-0.357,0.3l0.361-0.302
					h-0.471c-0.001,0.129,0.059,0.242,0.109,0.302l0.361-0.302h-0.471h0.471l-0.388-0.267c-0.039,0.056-0.083,0.151-0.083,0.267
					h0.471l-0.388-0.267l0.384,0.265l-0.281-0.373l-0.103,0.108l0.384,0.265l-0.281-0.373c-0.209,0.158-0.25,0.455-0.092,0.664
					S20.283,2139.43,20.491,2139.273"/>
			</g>
		</g>
	</g>
</g>
</svg>
