<?xml version="1.0" ?><svg height="20" preserveAspectRatio="xMidYMid" viewBox="0 0 512 512" width="20" xmlns="http://www.w3.org/2000/svg" xmlns:xlink="http://www.w3.org/1999/xlink"><defs><style>
      .cls-1 {
        fill: #fff;
      }

      .cls-2 {
        fill: #f26522;
      }

      .cls-2, .cls-3 {
        fill-rule: evenodd;
      }

      .cls-3 {
        fill: #000;
        opacity: 0.1;
      }
    </style></defs><circle class="cls-1" cx="256" cy="256" r="256"/><path class="cls-2" d="M256.000,512.000 C114.615,512.000 0.000,397.385 0.000,256.000 C0.000,114.615 114.615,0.000 256.000,0.000 C397.385,0.000 512.000,114.615 512.000,256.000 C512.000,397.385 397.385,512.000 256.000,512.000 ZM134.929,394.845 C155.324,394.845 171.857,378.302 171.857,357.895 C171.857,337.487 155.324,320.944 134.929,320.944 C114.533,320.944 98.000,337.487 98.000,357.895 C98.000,378.302 114.533,394.845 134.929,394.845 ZM125.811,289.553 C156.699,288.700 201.947,299.870 206.108,369.306 C208.240,404.870 289.464,411.670 272.229,335.374 C251.969,245.688 173.681,217.641 124.874,222.270 C88.008,225.766 89.750,290.550 125.811,289.553 ZM128.653,116.706 C86.183,121.735 91.931,182.683 122.986,182.683 C270.143,182.683 311.902,315.089 311.902,369.306 C311.902,407.902 378.927,402.846 379.912,365.536 C385.232,163.910 193.145,109.069 128.653,116.706 Z"/><path class="cls-3" d="M436.999,75.012 C536.959,174.972 536.959,337.039 436.999,436.999 C337.039,536.959 174.972,536.959 75.012,436.999 "/></svg>